<?xml version="1.0" encoding="UTF-8" standalone="no"?>
<!-- Created with Inkscape (http://www.inkscape.org/) -->

<svg
   xmlns:dc="http://purl.org/dc/elements/1.1/"
   xmlns:cc="http://creativecommons.org/ns#"
   xmlns:rdf="http://www.w3.org/1999/02/22-rdf-syntax-ns#"
   xmlns:svg="http://www.w3.org/2000/svg"
   xmlns="http://www.w3.org/2000/svg"
   xmlns:sodipodi="http://sodipodi.sourceforge.net/DTD/sodipodi-0.dtd"
   xmlns:inkscape="http://www.inkscape.org/namespaces/inkscape"
   width="300.00006"
   height="299.99997"
   viewBox="0 0 300.00008 300"
   id="svg2"
   version="1.1"
   inkscape:version="0.48.5 r10040"
   sodipodi:docname="Temporary_file_letter_T.svg">
  <defs
     id="defs4" />
  <sodipodi:namedview
     id="base"
     pagecolor="#ffffff"
     bordercolor="#666666"
     borderopacity="1.0"
     inkscape:pageopacity="0.0"
     inkscape:pageshadow="2"
     inkscape:zoom="0.35355339"
     inkscape:cx="137.33272"
     inkscape:cy="289.45572"
     inkscape:document-units="px"
     inkscape:current-layer="layer1"
     showgrid="false"
     fit-margin-top="0"
     fit-margin-bottom="0"
     fit-margin-left="0"
     fit-margin-right="0"
     units="px"
     inkscape:window-width="1600"
     inkscape:window-height="838"
     inkscape:window-x="-8"
     inkscape:window-y="-8"
     inkscape:window-maximized="1" />
  <metadata
     id="metadata7">
    <rdf:RDF>
      <cc:Work
         rdf:about="">
        <dc:format>image/svg+xml</dc:format>
        <dc:type
           rdf:resource="http://purl.org/dc/dcmitype/StillImage" />
        <dc:title />
      </cc:Work>
    </rdf:RDF>
  </metadata>
  <g
     inkscape:label="Layer 1"
     inkscape:groupmode="layer"
     id="layer1"
     transform="translate(485.27326,-1028.534)">
    <path
       style="fill:#a78bfa;fill-opacity:1;fill-rule:nonzero;stroke:none"
       d="M 0 0 L 0 85.8125 L 27.03125 85.8125 C 36.617786 44.346316 67.876579 42.179793 106.90625 42.59375 L 106.90625 228.375 C 107.31101 279.09641 98.908386 277.33602 62.125 277.5 L 62.125 299.5625 L 149 299.5625 L 150.03125 299.5625 L 236.90625 299.5625 L 236.90625 277.5 C 200.12286 277.336 191.72024 279.09639 192.125 228.375 L 192.125 42.59375 C 231.15467 42.17975 262.41346 44.346304 272 85.8125 L 299.03125 85.8125 L 299.03125 0 L 150.03125 0 L 149 0 L 0 0 z "
       transform="translate(-485.27327,1028.534)"
       id="path8286" />
  </g>
</svg>
